# xmcd
#
# Track frame offsets:
#	150
#	11315
#	25588
#	39990
#	59017
#	69716
#	79404
#	89835
#	103843
#	114477
#	129166
#	144526
#
# Disc length: 2088 seconds
#
# Revision: 1
# Processed by: cddbd v1.5.1PL0 Copyright (c) Steve Scherf et al.
# Submitted via: audiograbber 1.83.01
#
DISCID=a108260c
DTITLE=Ralph Stanley II - Pretty Girls, City Lights
DYEAR=1900
DGENRE=
TTITLE0=Pretty Girls, City Lights
TTITLE1=Home In The Mountains
TTITLE2=All I Ever Loved Was You
TTITLE3=The Angels Are Singing
TTITLE4=It Sure Gets Cold This Time Of Year
TTITLE5=I'll Remember You In My Dreams
TTITLE6=Think Of What You've Done
TTITLE7=Sea Of Regret
TTITLE8=It's Raining Here This Morning
TTITLE9=I Don't Want Your Rambling Letters
TTITLE10=Pathway Of Danger
TTITLE11=I'll Just Catch A Train And Ride
EXTD=
EXTT0=
EXTT1=
EXTT2=
EXTT3=
EXTT4=
EXTT5=
EXTT6=
EXTT7=
EXTT8=
EXTT9=
EXTT10=
EXTT11=
PLAYORDER=
